<?xml version="1.0" encoding="utf-8"?>
<!-- Uploaded to: SVG Repo, www.svgrepo.com, Generator: SVG Repo Mixer Tools -->
<svg width="800px" height="800px" viewBox="0 -0.02 20.109 20.109" xmlns="http://www.w3.org/2000/svg">
  <g id="edit-user-3" transform="translate(-2 -2)">
    <circle id="secondary" fill="#2ca9bc" cx="5" cy="5" r="5" transform="translate(6 3)"/>
    <path id="primary" d="M9,21c-4.45-.37-6-2-6-2V18a5,5,0,0,1,5-5h3" fill="none" stroke="#000000" stroke-linecap="round" stroke-linejoin="round" stroke-width="2"/>
    <path id="primary-2" data-name="primary" d="M20.71,16.09,15.8,21H13V18.2l4.91-4.91a1,1,0,0,1,1.4,0l1.4,1.4A1,1,0,0,1,20.71,16.09ZM11,3a5,5,0,1,0,5,5A5,5,0,0,0,11,3Z" fill="none" stroke="#000000" stroke-linecap="round" stroke-linejoin="round" stroke-width="2"/>
  </g>
</svg>